<svg width="134" height="134" viewBox="0 0 134 134" fill="none" xmlns="http://www.w3.org/2000/svg">
<path d="M89.3333 39.0832H89.3891M18.9833 100.5H67C78.8463 100.5 90.2074 95.794 98.5841 87.4173C106.961 79.0407 111.667 67.6796 111.667 55.8332V39.0832C111.679 34.3257 110.172 29.6885 107.365 25.8473C104.558 22.0061 100.598 19.1617 96.0614 17.7285C91.5249 16.2952 86.6493 16.3481 82.145 17.8794C77.6406 19.4107 73.743 22.3404 71.02 26.2416L11.1666 111.667" stroke="white" stroke-width="7" stroke-linecap="round" stroke-linejoin="round"/>
<path d="M111.667 39.0833L122.833 41.8749L111.667 44.6666M55.8333 100.5V117.25M78.1666 99.1041V117.25M39.0833 100.5C45.9682 100.5 52.6858 98.3779 58.3219 94.4236C63.958 90.4694 68.2389 84.8746 70.582 78.4006C72.925 71.9267 73.2165 64.888 71.4167 58.2425C69.6168 51.597 65.8132 45.6674 60.5233 41.2608" stroke="white" stroke-width="7" stroke-linecap="round" stroke-linejoin="round"/>
</svg>
