<svg width="134" height="134" viewBox="0 0 134 134" fill="none" xmlns="http://www.w3.org/2000/svg">
<path d="M67 122.833C97.8359 122.833 122.833 97.836 122.833 67.0001C122.833 36.1642 97.8359 11.1667 67 11.1667C36.164 11.1667 11.1666 36.1642 11.1666 67.0001C11.1666 97.836 36.164 122.833 67 122.833Z" stroke="white" stroke-width="4" stroke-linecap="round" stroke-linejoin="round"/>
<path d="M11.1666 67H122.833" stroke="white" stroke-width="4" stroke-linecap="round" stroke-linejoin="round"/>
<path d="M67 122.833C79.3344 122.833 89.3333 97.836 89.3333 67.0001C89.3333 36.1642 79.3344 11.1667 67 11.1667C54.6655 11.1667 44.6666 36.1642 44.6666 67.0001C44.6666 97.836 54.6655 122.833 67 122.833Z" stroke="white" stroke-width="4" stroke-linecap="round" stroke-linejoin="round"/>
<path d="M27.52 28.3135C37.6239 38.4174 51.5822 44.6668 67 44.6668C82.4181 44.6668 96.3765 38.4174 106.48 28.3135" stroke="white" stroke-width="4" stroke-linecap="round" stroke-linejoin="round"/>
<path d="M106.48 105.687C96.3765 95.5829 82.4181 89.3335 67 89.3335C51.5822 89.3335 37.6239 95.5829 27.52 105.687" stroke="white" stroke-width="4" stroke-linecap="round" stroke-linejoin="round"/>
</svg>
