<svg width="134" height="134" viewBox="0 0 134 134" fill="none" xmlns="http://www.w3.org/2000/svg">
<path d="M52.3382 35.7781C47.4807 35.9651 43.0894 37.6987 40.7416 40.0493C40.4822 40.3085 40.1743 40.5141 39.8355 40.6543C39.4967 40.7945 39.1336 40.8666 38.7669 40.8664C38.4002 40.8663 38.0371 40.794 37.6984 40.6535C37.3597 40.5131 37.052 40.3073 36.7928 40.0479C36.5336 39.7885 36.328 39.4807 36.1878 39.1418C36.0476 38.803 35.9755 38.4399 35.9756 38.0732C35.9758 37.7065 36.0481 37.3435 36.1886 37.0048C36.329 36.666 36.5348 36.3583 36.7942 36.0991C40.415 32.4783 46.311 30.4236 52.1204 30.1975C57.969 29.9714 64.3535 31.571 68.8258 36.0433C69.3492 36.5671 69.6431 37.2774 69.6429 38.018C69.6426 38.7585 69.3482 39.4686 68.8244 39.9921C68.3005 40.5155 67.5902 40.8095 66.8497 40.8092C66.1091 40.8089 65.399 40.5145 64.8755 39.9907C61.8326 36.945 57.1594 35.5882 52.3382 35.7753V35.7781Z" fill="white"/>
<path fill-rule="evenodd" clip-rule="evenodd" d="M80.7797 76.447C86.315 69.9057 89.3465 61.6107 89.3333 53.0417C89.3333 32.9975 73.0858 16.75 53.0417 16.75C32.9975 16.75 16.75 32.9975 16.75 53.0417C16.75 73.0858 32.9975 89.3333 53.0417 89.3333C61.961 89.3333 70.1267 86.1173 76.447 80.7797L75.375 86.9437L96.3516 107.92L107.92 96.3516L86.9437 75.375L80.7797 76.447ZM53.0417 80.9583C68.46 80.9583 80.9583 68.46 80.9583 53.0417C80.9583 37.6233 68.46 25.125 53.0417 25.125C37.6233 25.125 25.125 37.6233 25.125 53.0417C25.125 68.46 37.6233 80.9583 53.0417 80.9583Z" fill="white"/>
<path d="M100.299 111.868L111.868 100.299L115.653 104.085C117.783 106.215 117.783 109.668 115.653 111.795L111.795 115.653C109.665 117.783 106.212 117.783 104.085 115.653L100.299 111.868Z" fill="white"/>
</svg>
