<svg width="134" height="134" viewBox="0 0 134 134" fill="none" xmlns="http://www.w3.org/2000/svg">
<path d="M67.0576 4.80908C32.4269 4.80908 4.30186 32.9255 4.30186 67.5562C4.30186 102.187 32.4269 130.311 67.0576 130.311C101.688 130.311 129.812 102.187 129.812 67.5564C129.812 32.9258 101.688 4.80908 67.0576 4.80908ZM67.0576 9.4873C93.9552 9.4873 116.546 27.7197 123.163 52.5154L102.406 31.1932L100.582 29.3206L98.8318 31.2757L78.6219 53.8981C75.6465 51.2396 72.6394 48.6167 69.6012 46.03L67.8836 44.5579L66.2805 46.169C61.3878 51.0949 56.5511 56.0761 51.7714 61.1116L31.7664 39.2908L29.9671 37.3279L28.1677 39.2908L9.5365 59.525C13.4429 31.2335 37.683 9.4873 67.0576 9.4873ZM93.8183 48.0332L92.812 57.2918L98.4554 48.9168L101.269 53.2844L103.878 51.0676L110.993 58.0853L109.137 49.0314L114.24 50.3563L124.496 60.8904L124.717 60.6779C124.988 62.9606 125.125 65.2572 125.126 67.5559C125.126 77.2481 122.755 86.3779 118.567 94.4069C106.462 80.4102 94.3548 68.2047 82.2535 57.1688L85.1324 53.9465L93.8188 48.0332H93.8183ZM36.1983 53.9873L43.1176 58.9029L48.4096 64.6691C38.0795 75.6676 27.8306 87.134 18.0659 98.7826C12.3133 89.7682 8.97956 79.0542 8.97956 67.5562V67.352L13.2325 62.7306L22.9815 57.4473L18.4834 71.5966L29.4266 58.1913L36.5747 66.7548L36.1983 53.9876V53.9873ZM73.1988 70.1241L87.111 86.0728L85.0989 71.7926L101.105 82.4414C106.197 87.789 111.15 93.2677 115.958 98.8721L116.007 98.8234C105.696 114.951 87.6412 125.633 67.0576 125.633C48.2766 125.633 31.5991 116.737 20.9864 102.929C25.9944 96.9328 31.1346 90.9826 36.3546 85.1162L51.0514 76.2664L43.3799 96.3533L59.4834 77.1497L61.1192 85.5744L66.2311 75.9476L78.7527 94.1371L73.1991 70.1244L73.1988 70.1241Z" fill="white"/>
</svg>
