<svg width="134" height="134" viewBox="0 0 134 134" fill="none" xmlns="http://www.w3.org/2000/svg">
<g clip-path="url(#clip0_468_17)">
<path fill-rule="evenodd" clip-rule="evenodd" d="M104.246 17.9114C105.846 17.6447 107.484 17.7295 109.048 18.1599C110.611 18.5903 112.062 19.356 113.299 20.4038C114.537 21.4516 115.531 22.7564 116.213 24.2273C116.896 25.6983 117.249 27.3002 117.25 28.9217V94.9167C117.249 99.8329 115.626 104.611 112.632 108.511C109.639 112.411 105.442 115.213 100.693 116.485C95.9445 117.757 90.9088 117.426 86.3672 115.544C81.8256 113.662 78.0318 110.334 75.5742 106.076C73.1166 101.818 72.1326 96.8688 72.7747 91.9948C73.4168 87.1208 75.6491 82.5948 79.1255 79.1188C82.6019 75.6428 87.1282 73.4109 92.0022 72.7694C96.8763 72.1278 101.826 73.1124 106.083 75.5705V51.2551L50.25 60.5625V100.5C50.25 100.835 50.2221 101.153 50.1663 101.472C50.5671 105.765 49.5366 110.07 47.2353 113.717C44.934 117.364 41.4911 120.147 37.4431 121.633C33.3951 123.119 28.9692 123.224 24.8551 121.932C20.7411 120.641 17.1698 118.024 14.6977 114.491C12.2256 110.958 10.9915 106.706 11.1878 102.399C11.3841 98.091 12.9996 93.9693 15.7827 90.6755C18.5659 87.3818 22.3603 85.1011 26.5748 84.1888C30.7893 83.2765 35.1872 83.7838 39.0834 85.6317V38.2292C39.083 35.5858 40.0204 33.028 41.7288 31.0109C43.4372 28.9938 45.8058 27.6481 48.4131 27.2132L104.246 17.9114ZM50.25 49.2451L106.083 39.9377V28.9217L50.25 38.2292V49.2451Z" fill="white"/>
</g>
<defs>
<clipPath id="clip0_468_17">
<rect width="134" height="134" fill="white"/>
</clipPath>
</defs>
</svg>
